<svg xmlns="http://www.w3.org/2000/svg" viewBox="0 0 100 100">
  <defs>
    <linearGradient id="bg" x1="0" y1="0" x2="1" y2="1">
      <stop offset="0%" stop-color="#1e3a5f"/>
      <stop offset="100%" stop-color="#3b82f6"/>
    </linearGradient>
  </defs>
  <rect width="100" height="100" rx="22" fill="url(#bg)"/>
  <g transform="translate(28,15) scale(0.85)" fill="none" stroke="#fff" stroke-width="3.5" stroke-linecap="round" stroke-linejoin="round">
    <!-- fork -->
    <path d="M6 2v8M6 10c0 3 1.5 4 3 4s3-1 3-4V2"/>
    <path d="M7 2h2"/>
    <!-- knife -->
    <path d="M36 2v22M36 8c0-3 2-4 4-4s4 1 4 4v14a2 2 0 0 1-2 2h-4a2 2 0 0 1-2-2Z"/>
  </g>
</svg>
